<svg width="512" height="629" viewBox="0 0 512 629" fill="none" xmlns="http://www.w3.org/2000/svg">
<g filter="url(#filter0_d_22_100)">
<path d="M458.636 168.239C426.479 226.259 444.369 244.069 340.36 347.834C250.42 431.144 106.716 205.866 106.716 153.693C106.716 101.52 186.802 59.2255 285.592 59.2255C384.382 59.2255 498.008 97.2028 458.636 168.239Z" fill="url(#paint0_linear_22_100)" fill-opacity="0.94" shape-rendering="crispEdges"/>
</g>
<g filter="url(#filter1_d_22_100)">
<path d="M497 273.654C464.791 331.508 422.176 367.652 318 471.121C227.916 554.192 141.826 425.469 141.826 373.445C141.826 321.422 181.051 108.536 280 108.536C378.948 108.536 536.435 202.821 497 273.654Z" fill="url(#paint1_linear_22_100)" fill-opacity="0.8" shape-rendering="crispEdges"/>
</g>
<path d="M60.5 312.526C65.8458 245.901 144.328 260.325 196.031 120.602C243.374 5.57739 384.638 249.658 406.04 296.778C427.442 343.899 389.098 371.498 299.558 415.195C210.019 458.893 53.9549 394.098 60.5 312.526Z" fill="url(#paint2_linear_22_100)" fill-opacity="0.73"/>
<g filter="url(#filter2_d_22_100)">
<path d="M222.736 423.521C265.736 417.632 325.61 410.99 357.734 417.632C378.413 421.907 490.492 407.302 504.626 423.521C521.731 443.148 446.663 441.679 426.143 468.633C405.623 495.587 357.382 483.984 334.16 484.542C313.324 485.043 310.537 482.718 290.412 477.101C260.072 468.633 53.4855 505.062 77.345 458.682C101.204 412.302 203.367 426.174 222.736 423.521Z" fill="#59608D"/>
</g>
<path d="M351.245 430.529C350.227 434.852 348.243 444.241 349.685 446.243C351.573 448.864 364.793 451.959 371.494 453.122C378.414 454.323 387.717 453.308 389.411 452.157C391.206 450.938 392.502 446.641 389.996 445.492C387.49 444.343 378.309 439.91 374.639 437.726C370.605 435.325 367.72 432.536 365.844 430.35C360.905 432.331 354.692 431.352 351.245 430.529Z" fill="#1A1F24"/>
<path d="M289.339 432.577C287.993 440.339 285.294 456.563 285.776 459.239C286.143 461.28 285.381 469.834 296.502 469.972C308.354 470.119 308.815 466.07 309.476 463.562C310.634 459.165 306.434 436.283 305.488 431.258C300.391 434.133 293.549 433.434 289.339 432.577Z" fill="#242A31"/>
<path d="M349.52 84.3104C349.357 84.099 349.168 83.9234 348.95 83.7802C344.651 80.9674 339.577 79.2441 335.96 78.2746C335.194 79.3335 329.772 86.6562 325.562 87.8207C325.874 97.3053 326.072 103.776 326.395 113.566C326.401 113.739 326.27 113.885 326.104 113.891C325.938 113.897 325.798 113.761 325.792 113.588C325.47 103.83 325.273 97.3715 324.963 87.9409C324.886 87.9512 324.807 87.9654 324.731 87.9709C312.418 88.8258 298.908 78.6021 298.336 78.1644C291.178 79.5653 279.497 82.6308 275.302 88.2551C275.299 88.2728 275.297 88.2894 275.294 88.3069C273.063 90.4474 265.226 105.342 257.469 117.235C257.711 117.678 257.971 118.114 258.238 118.547C262.162 124.906 268.707 130.251 273.493 133.695C274.287 134.266 275.036 134.789 275.713 135.252C276.418 134.287 277.153 133.22 277.901 132.083C277.834 132.091 277.764 132.079 277.703 132.038C277.564 131.942 277.525 131.748 277.616 131.603C281.627 125.237 285.639 118.871 289.65 112.505C290.651 110.919 291.644 109.32 292.067 107.547C292.252 106.772 292.327 105.977 292.327 105.17C292.327 104.004 292.17 102.816 291.967 101.646C290.974 95.9224 288.957 90.3921 286.05 85.4259C285.964 85.2779 286.009 85.0846 286.151 84.9943C286.293 84.9042 286.479 84.951 286.565 85.099C289.511 90.1317 291.554 95.7339 292.56 101.534C292.766 102.721 292.93 103.945 292.93 105.17C292.93 106.017 292.851 106.865 292.651 107.698C292.193 109.609 291.153 111.262 290.154 112.849C287.383 117.246 284.612 121.643 281.842 126.041C281.843 126.054 281.845 126.066 281.847 126.08C283.206 138.254 284.546 149.411 284.087 163.038L291.338 173.405C291.338 173.405 294.94 176.937 296.316 179.189C297.692 181.441 296.591 186.887 294.586 188.525C292.58 190.163 289.199 190.982 287.902 191.187C286.604 191.391 282.594 191.105 282.436 189.917C282.381 189.5 283.109 189.093 284.07 188.74C283.651 188.444 283.32 188.019 283.38 187.419C283.42 187.012 284.034 186.683 284.818 186.425C284.614 186.212 284.489 185.949 284.528 185.626C284.569 185.281 285.195 185.003 285.99 184.786C284.996 183.491 284.026 182.006 283.812 180.909C283.654 180.097 283.798 179.464 283.947 179.068C283.606 178.826 283.139 178.494 282.566 178.082C280.372 190.064 276.247 203.848 277.757 205.682C277.882 205.834 278.322 205.973 279.021 206.102C288.903 207.923 352.115 207.496 353.878 205.355C353.885 205.347 353.889 205.336 353.895 205.328C355.74 202.955 352.066 187.427 351.676 176.527C351.213 163.556 351.924 153.841 352.452 144.681C352.705 140.286 352.912 136.014 352.93 131.579C358.052 127.904 361.691 123.221 364.3 118.972C364.558 118.553 364.807 118.136 365.045 117.727C361.697 108.492 356.248 89.422 349.52 84.3104Z" fill="#EF7853"/>
<path d="M327.802 240.961C327.802 240.961 326.109 257.171 323.684 280.103L330.607 309.252C330.607 309.252 330.196 330.165 330.825 337.153C331.454 344.142 348.637 429.798 348.637 429.798C348.637 429.798 349.644 430.146 351.245 430.528C354.692 431.352 360.905 432.33 365.844 430.349C366.999 429.886 368.086 429.266 369.049 428.438C369.75 426.358 355.452 231.233 355.137 218.13C355.137 218.13 342.586 233.755 327.802 240.961Z" fill="#242A31"/>
<path d="M279.022 206.102C277.746 210.992 276.716 216.58 276.843 221.593C277.279 238.855 279.325 296.006 281.113 330.164C283.057 367.305 284.026 423.543 285.514 431.591C285.514 431.591 287.033 432.107 289.339 432.577C293.549 433.434 300.391 434.133 305.488 431.258C305.973 430.984 306.445 430.681 306.895 430.339C307.929 428.03 317.894 334.881 323.684 280.104C326.109 257.171 327.802 240.962 327.802 240.962C342.586 233.755 355.137 218.13 355.137 218.13L355.069 217.429L353.896 205.328C353.89 205.336 353.885 205.347 353.879 205.355C352.117 207.496 288.904 207.923 279.022 206.102Z" fill="#313942"/>
<path d="M342.206 34.7426C340.39 34.0854 337.994 34.2749 337.755 34.086C336.734 33.2768 336.937 31.7293 338.178 31.3038C338.386 31.2212 340.298 31.4949 342.191 32.2792C342.665 32.4742 343.097 32.6815 343.444 32.9441L343.468 32.9705C343.459 31.4407 343.451 30.0112 343.458 28.7217C343.077 25.1165 342.063 18.3306 339.724 16.6676C331.546 25.2665 319.2 29.5252 312.909 27.6416C310.224 28.8483 313.662 39.8076 310.309 42.0727C310.125 40.8523 309.296 36.5079 306.789 36.1876C305.557 36.0302 304.068 37.7089 304.254 40.8158C304.451 44.1067 305.993 46.6843 307.222 46.819C307.928 46.8964 308.477 46.782 308.906 46.5492C309.042 49.2916 309.32 52.6654 309.181 55.1638C309.102 59.6687 308.55 64.838 307.025 70.0043C309.158 71.9178 316.259 77.7655 322.739 77.1612C327.426 76.7242 329.772 75.3174 330.819 74.4278C330.046 69.978 330.244 64.5389 330.244 64.5389C330.244 64.5389 336.008 65.1555 339.515 62.802C343.202 60.3272 343.443 42.421 343.467 39.3824C343.483 37.9789 343.483 36.6048 343.479 35.2745C343.146 35.1322 342.75 34.9339 342.206 34.7426Z" fill="#F4A29E"/>
<path d="M308.906 46.5489C308.477 46.7818 307.928 46.8961 307.222 46.8187C305.993 46.6843 304.451 44.1065 304.254 40.8155C304.068 37.7086 305.557 36.0299 306.789 36.1873C309.296 36.5076 310.124 40.852 310.309 42.0725C313.662 39.8074 310.224 28.8478 312.909 27.6413C319.2 29.5249 331.546 25.2663 339.724 16.6673C342.063 18.3303 343.077 25.1163 343.458 28.7214C343.602 30.0873 343.656 30.999 343.656 30.999C343.656 30.999 346.993 23.0486 344.285 13.719C348.217 10.2793 349.79 3.23628 346.802 0.451892C343.813 -2.33249 330.288 8.88725 319.436 3.31826C316.491 1.8068 315.032 8.15 315.032 8.15C315.032 8.15 313.459 6.43017 310.707 7.33097C307.955 8.23177 300.877 15.5206 300.248 23.0549C299.764 28.8495 301.821 31.4083 301.821 31.4083C301.821 31.4083 301.404 37.0894 302.293 41.5633C303.707 48.6837 307.3 55.0824 309.168 55.4191C309.174 55.3369 309.176 55.2475 309.181 55.1633C309.32 52.6649 309.042 49.2911 308.906 46.5489Z" fill="#583636"/>
<path d="M342.191 32.279C340.299 31.4949 338.386 31.2212 338.178 31.3036C336.937 31.7293 336.734 33.2766 337.755 34.086C337.994 34.2752 340.39 34.0854 342.206 34.7426C342.75 34.9339 343.146 35.132 343.479 35.2741C343.5 35.2831 343.524 35.294 343.544 35.3026C343.89 35.4453 343.858 33.3518 343.468 32.9703C343.46 32.9622 343.452 32.9504 343.444 32.9439C343.097 32.6813 342.665 32.4742 342.191 32.279Z" fill="#583636"/>
<path d="M319.766 35.9944C320.496 35.6376 320.958 35.2209 323.022 34.7532C325.168 34.2493 327.871 34.6395 328.165 34.4707C329.424 33.7483 329.378 32.1864 328.017 31.6573C327.79 31.5574 325.581 31.6704 323.334 32.2946C321.084 32.9151 319.796 34.1679 319.61 34.4495C319.01 35.3455 319.336 36.2043 319.766 35.9944Z" fill="#583636"/>
<path d="M306.24 37.2965C306.133 37.1637 305.943 37.1469 305.816 37.2584C305.688 37.3701 305.672 37.568 305.779 37.7007L305.797 37.7239C305.975 37.9482 307.322 39.778 307.627 42.2403C307.622 42.2349 307.619 42.2285 307.614 42.2231C307.26 41.8166 306.759 41.5088 306.174 41.5077C306.035 41.5077 305.893 41.5254 305.75 41.5626C305.588 41.6048 305.49 41.7751 305.531 41.9432C305.571 42.1116 305.735 42.2137 305.896 42.1717C305.992 42.1468 306.084 42.1356 306.173 42.1354C306.545 42.1345 306.897 42.3357 307.168 42.6451C307.437 42.9516 307.607 43.3609 307.622 43.6847C307.625 43.7369 307.643 43.7831 307.667 43.825C307.667 43.8275 307.667 43.8294 307.667 43.8318C307.653 44.0046 307.777 44.1561 307.943 44.1701C308.109 44.1841 308.254 44.0555 308.267 43.8826C308.285 43.6624 308.293 43.4455 308.293 43.2321C308.286 39.815 306.257 37.3238 306.24 37.2965Z" fill="#DF8080"/>
<path d="M333.422 47.475C333.709 47.6688 334.064 47.7182 334.452 47.7212C334.96 47.7206 335.53 47.6169 336.039 47.4584C336.549 47.2942 336.988 47.0966 337.265 46.8147C337.382 46.6919 337.381 46.4929 337.263 46.3709C337.145 46.2487 336.954 46.2496 336.837 46.3727C336.714 46.51 336.321 46.7192 335.866 46.8572C335.409 47.0006 334.88 47.0944 334.452 47.0935C334.125 47.0968 333.86 47.031 333.756 46.9529C333.618 46.8567 333.431 46.8956 333.338 47.0399C333.246 47.184 333.283 47.3788 333.422 47.475Z" fill="#DF8080"/>
<path d="M336.248 44.955C336.375 44.8426 336.39 44.6443 336.282 44.5124C335.14 43.1223 334.548 40.927 334.526 39.0027C334.524 38.8293 334.387 38.6907 334.221 38.6929C334.054 38.6953 333.921 38.8376 333.923 39.011C333.952 41.0568 334.555 43.3615 335.823 44.9198C335.931 45.0516 336.122 45.0674 336.248 44.955Z" fill="#DF8080"/>
<path d="M349.396 93.1952C349.235 93.24 349.14 93.4121 349.183 93.5796C349.942 96.5338 350.571 101.098 351.16 107.197C351.135 107.308 351.115 107.419 351.089 107.53C351.057 107.665 351.117 107.798 351.223 107.867C351.756 113.509 352.257 120.407 352.792 128.558C352.803 128.731 352.947 128.862 353.114 128.85C353.28 128.838 353.405 128.688 353.394 128.515C352.838 120.082 352.323 112.988 351.77 107.233C352.637 103.328 352.837 99.3352 352.837 95.3472C352.837 94.3282 352.824 93.3091 352.807 92.292C352.804 92.1186 352.667 91.9806 352.5 91.9837C352.334 91.9868 352.202 92.1297 352.204 92.3031C352.222 93.3181 352.234 94.3334 352.234 95.3472C352.234 98.6437 352.094 101.924 351.56 105.138C351.027 100.018 350.451 96.0948 349.765 93.4175C349.722 93.2501 349.557 93.1506 349.396 93.1952Z" fill="#CC4031"/>
<path d="M339.906 40.4439C340.558 40.4439 341.086 39.7197 341.086 38.8266C341.086 37.9332 340.558 37.2091 339.906 37.2091C339.255 37.2091 338.727 37.9332 338.727 38.8266C338.727 39.7197 339.255 40.4439 339.906 40.4439Z" fill="#583636"/>
<path d="M324.965 38.7208C324.965 39.7629 325.581 40.6077 326.341 40.6077C327.101 40.6077 327.717 39.7629 327.717 38.7208C327.717 37.6786 327.101 36.8337 326.341 36.8337C325.581 36.8337 324.965 37.6786 324.965 38.7208Z" fill="#583636"/>
<path d="M328.505 51.4654C328.457 51.6315 328.548 51.8062 328.708 51.8559C328.902 51.9145 329.186 51.9518 329.58 51.9894C330.749 52.0981 332.806 52.1593 334.8 52.1593C335.991 52.1593 337.157 52.1375 338.094 52.0898C338.562 52.066 338.973 52.0358 339.305 51.998C339.64 51.9582 339.883 51.9193 340.068 51.8484C340.223 51.7868 340.302 51.6055 340.242 51.4433C340.183 51.2813 340.009 51.1999 339.853 51.2616C339.783 51.292 339.549 51.3401 339.24 51.374C338.298 51.4818 336.574 51.5321 334.8 51.5316C333.48 51.5316 332.128 51.5043 331.037 51.4544C330.491 51.4297 330.01 51.3991 329.634 51.3641C329.26 51.3305 328.978 51.2861 328.88 51.2539C328.72 51.2045 328.552 51.2992 328.505 51.4654Z" fill="#583636"/>
<path d="M400.787 85.4594C400.354 84.7632 399.248 85.1264 399.248 85.1264C399.248 85.1264 399.07 83.6576 398.703 83.33C398.336 83.0025 397.012 83.8624 397.012 83.8624C397.012 83.8624 397.104 82.279 396.737 82.0608C396.37 81.8424 395.046 82.5932 395.046 82.5932C395.046 82.5932 397.906 72.0858 397.182 71.701C396.459 71.3164 391.415 81.2009 391.415 81.2009C391.415 81.2009 389.109 80.8734 388.06 82.1837C387.083 83.4044 386.38 94.0056 386.288 95.4515C386.281 95.5577 386.278 95.6146 386.278 95.6146L366.776 128.537C366.776 128.537 365.792 124.225 364.3 118.972C361.692 123.221 358.052 127.903 352.93 131.579C352.913 136.014 352.705 140.286 352.452 144.681C354.622 149.448 357.626 153.394 361.743 154.251C371.179 156.217 381.559 144.26 385.02 134.924C387.266 128.864 394.273 99.7757 394.273 99.7757C394.273 99.7757 398.473 93.9968 399.489 91.9698C401.337 88.2849 401.095 85.9553 400.787 85.4594Z" fill="#F4A29E"/>
<path d="M399.435 89.4642C399.278 89.4049 399.106 89.4889 399.049 89.6518C398.897 90.0856 398.653 90.6757 398.196 91.3393C398.089 91.496 397.96 91.6545 397.832 91.7619C397.702 91.8716 397.585 91.9213 397.494 91.9197L397.412 91.9077C397.314 91.8775 397.247 91.8124 397.183 91.6729C397.122 91.5365 397.089 91.339 397.09 91.1484L397.095 91.0146C397.139 90.4081 397.315 89.8105 397.604 89.2823L397.081 88.9705C396.437 90.1453 395.737 91.3205 394.671 91.8338C394.572 91.8832 394.451 91.9169 394.375 91.9154C394.302 91.9125 394.293 91.9001 394.282 91.888C394.272 91.8819 394.247 91.8115 394.243 91.6935V91.693L394.239 91.5343C394.234 90.4057 394.882 89.298 395.551 88.2442L395.551 88.2437C395.554 88.2376 395.558 88.2324 395.562 88.2263L395.048 87.899C395.021 87.9414 394.994 87.9853 394.967 88.0282C394.639 88.6108 394.248 89.1561 393.795 89.6398C393.488 89.9712 393.15 90.2404 392.816 90.2743L392.756 90.2778C392.618 90.2791 392.458 90.2202 392.35 90.1302C392.24 90.0379 392.19 89.9367 392.19 89.8363L392.191 89.8232C392.195 89.7274 392.155 89.6426 392.092 89.5818C392.187 89.0455 392.239 88.5009 392.239 87.9554C392.239 87.8568 392.225 87.7588 392.222 87.6604C392.579 87.958 393.002 88.2628 393.549 88.27L393.631 88.2674C394.046 88.2413 394.396 88.0137 394.641 87.7122C394.887 87.4088 395.042 87.0264 395.079 86.63L395.079 86.6295L395.089 86.4087C395.087 85.7289 394.823 85.1117 394.542 84.5708C393.88 83.3009 392.984 82.1653 391.916 81.2422C391.788 81.1316 391.597 81.15 391.491 81.2833C391.385 81.4167 391.403 81.6148 391.531 81.7254C392.539 82.5969 393.387 83.6713 394.013 84.8706C394.278 85.3769 394.488 85.908 394.486 86.4087L394.479 86.5714C394.457 86.8324 394.345 87.107 394.182 87.306C394.017 87.5069 393.814 87.6276 393.595 87.641L393.549 87.6425C393.198 87.651 392.802 87.3615 392.422 87.0226C392.321 86.9347 392.222 86.8458 392.123 86.7574C392.094 86.7157 392.057 86.684 392.014 86.6608C391.462 86.1658 390.948 85.6546 390.587 85.0501C390.498 84.9029 390.312 84.8581 390.171 84.9499C390.03 85.0415 389.987 85.2353 390.075 85.3824C390.484 86.0637 391.031 86.6068 391.588 87.1075C391.616 87.3893 391.637 87.6722 391.637 87.9558C391.637 89.0239 391.437 90.0932 391.049 91.081C390.986 91.2415 391.059 91.4247 391.214 91.4906C391.368 91.5564 391.544 91.4794 391.607 91.3189C391.709 91.0585 391.798 90.7929 391.876 90.5237C391.909 90.5583 391.941 90.5941 391.977 90.6234C392.197 90.8027 392.472 90.9048 392.757 90.9059L392.884 90.8987C393.237 90.8545 393.527 90.6884 393.779 90.4887C393.692 90.8254 393.638 91.1733 393.637 91.5347L393.642 91.7284V91.728C393.652 91.8749 393.664 92.0848 393.814 92.2846C393.965 92.4801 394.193 92.5466 394.375 92.5435C394.582 92.5422 394.768 92.479 394.927 92.4029C395.565 92.0888 396.067 91.6086 396.49 91.0622L396.487 91.149C396.488 91.4077 396.525 91.6823 396.635 91.9348C396.742 92.1843 396.946 92.4252 397.249 92.5127C397.331 92.5367 397.414 92.5483 397.495 92.5481C397.782 92.5468 398.021 92.4108 398.212 92.2503C398.404 92.0874 398.56 91.8898 398.687 91.7055C399.183 90.9848 399.453 90.3339 399.616 89.8669C399.672 89.7036 399.591 89.5234 399.435 89.4642Z" fill="#DF8080"/>
<path d="M366.569 128.734C366.419 128.659 366.239 128.725 366.167 128.882C364.279 132.986 363.297 137.534 363.297 142.084C363.297 143.054 363.342 144.025 363.432 144.991C363.448 145.163 363.596 145.29 363.761 145.273C363.927 145.256 364.048 145.102 364.032 144.93C363.944 143.984 363.9 143.034 363.9 142.084C363.9 137.629 364.862 133.171 366.711 129.153C366.783 128.997 366.72 128.809 366.569 128.734Z" fill="#DF8080"/>
<path d="M324.731 87.9709C324.807 87.9657 324.886 87.9513 324.963 87.941C325.273 97.3716 325.47 103.83 325.793 113.588C325.798 113.761 325.938 113.897 326.104 113.891C326.271 113.885 326.401 113.739 326.395 113.566C326.072 103.776 325.874 97.3053 325.562 87.8207C329.772 86.656 335.194 79.3335 335.96 78.2745C336.02 78.1916 336.055 78.1433 336.055 78.1433L331.546 73.6664C331.546 73.6664 331.341 73.9836 330.819 74.4273C329.772 75.3169 327.426 76.7234 322.739 77.1605C316.259 77.7648 309.158 71.917 307.025 70.0035C306.612 69.6331 306.382 69.4077 306.382 69.4077C306.382 69.4077 304.285 73.1204 302.293 75.1949C300.301 77.2696 298.308 78.1433 298.308 78.1433C298.308 78.1433 298.323 78.1546 298.336 78.1643C298.908 78.6024 312.418 88.8258 324.731 87.9709Z" fill="#CC4031"/>
<path d="M329.187 95.6693C329.969 95.6693 330.602 94.6915 330.602 93.4853C330.602 92.2792 329.969 91.3013 329.187 91.3013C328.405 91.3013 327.772 92.279 327.772 93.4853C327.771 94.6915 328.405 95.6693 329.187 95.6693Z" fill="#CC4031"/>
<path d="M329.764 103.422C330.545 103.422 331.179 102.444 331.179 101.238C331.179 100.032 330.545 99.0543 329.764 99.0543C328.982 99.0543 328.348 100.032 328.348 101.238C328.348 102.444 328.982 103.422 329.764 103.422Z" fill="#CC4031"/>
<path d="M330.235 112.158C331.017 112.158 331.651 111.18 331.651 109.974C331.651 108.768 331.017 107.79 330.235 107.79C329.454 107.79 328.82 108.768 328.82 109.974C328.82 111.18 329.454 112.158 330.235 112.158Z" fill="#CC4031"/>
<path d="M329.524 64.5469C329.562 64.3781 329.462 64.2089 329.301 64.1687C323.382 62.6994 317.662 59.5134 314.215 54.3535C314.12 54.2111 313.932 54.1761 313.795 54.2752C313.659 54.3745 313.625 54.5699 313.72 54.7123C317.285 60.0418 323.141 63.2832 329.16 64.7793C329.322 64.8198 329.485 64.7157 329.524 64.5469Z" fill="#DF8080"/>
<path d="M336.286 53.6768C335.43 54.0856 334.483 54.3252 333.556 54.325C332.958 54.325 332.369 54.2262 331.813 54.0117C331.657 53.9514 331.484 54.0344 331.426 54.1971C331.368 54.3596 331.448 54.5404 331.604 54.6005C332.233 54.8436 332.894 54.953 333.556 54.953C334.582 54.9527 335.61 54.6902 336.537 54.2476C336.689 54.1753 336.755 53.989 336.686 53.8313C336.616 53.6737 336.437 53.6044 336.286 53.6768Z" fill="#DF8080"/>
<path d="M285.991 184.786C285.196 185.004 284.57 185.281 284.529 185.626C284.49 185.95 284.614 186.212 284.819 186.425C284.035 186.683 283.421 187.012 283.38 187.419C283.321 188.019 283.652 188.444 284.071 188.74C285.841 188.09 288.413 187.624 288.413 187.624C288.413 187.624 287.184 186.342 285.991 184.786Z" fill="#D56C60"/>
<path d="M296.316 179.189C294.94 176.937 291.339 173.405 291.339 173.405L284.087 163.038L269.468 142.139L273.493 133.695C268.707 130.251 262.162 124.906 258.238 118.547C252.625 126.132 245.774 137.284 247.718 144.424C250.421 154.351 275.222 172.795 282.567 178.082C283.14 178.494 283.607 178.826 283.948 179.068C283.799 179.464 283.654 180.097 283.813 180.909C284.027 182.007 284.997 183.491 285.991 184.786C287.184 186.342 288.413 187.624 288.413 187.624C288.413 187.624 285.841 188.09 284.07 188.74C283.11 189.093 282.381 189.499 282.437 189.917C282.594 191.105 286.605 191.391 287.902 191.186C289.2 190.982 292.581 190.163 294.587 188.525C296.591 186.887 297.692 181.441 296.316 179.189Z" fill="#F4A29E"/>
<path d="M268.801 141.495C265.893 137.905 261.479 135.707 256.971 135.604C256.804 135.6 256.666 135.738 256.663 135.911C256.659 136.084 256.791 136.228 256.958 136.232C261.286 136.328 265.55 138.452 268.34 141.9C268.448 142.032 268.638 142.049 268.765 141.937C268.892 141.825 268.909 141.627 268.801 141.495Z" fill="#DF8080"/>
<path d="M278.12 131.948C279.361 129.979 280.601 128.01 281.842 126.041C284.613 121.644 287.383 117.246 290.154 112.849C291.153 111.262 292.193 109.609 292.652 107.698C292.851 106.865 292.93 106.017 292.93 105.17C292.93 103.945 292.766 102.722 292.56 101.534C291.555 95.7338 289.511 90.1318 286.565 85.0991C286.479 84.9511 286.293 84.9041 286.151 84.9944C286.009 85.0847 285.964 85.2778 286.05 85.4258C288.957 90.392 290.974 95.9223 291.967 101.646C292.17 102.816 292.328 104.004 292.327 105.17C292.327 105.977 292.252 106.772 292.067 107.547C291.644 109.32 290.651 110.919 289.65 112.505C285.639 118.871 281.627 125.237 277.616 131.603C277.525 131.748 277.564 131.943 277.703 132.038C277.764 132.08 277.834 132.091 277.901 132.083C277.987 132.073 278.069 132.029 278.12 131.948Z" fill="#CC4031"/>
<defs>
<filter id="filter0_d_22_100" x="102.716" y="59.2255" width="367.921" height="314.902" filterUnits="userSpaceOnUse" color-interpolation-filters="sRGB">
<feFlood flood-opacity="0" result="BackgroundImageFix"/>
<feColorMatrix in="SourceAlpha" type="matrix" values="0 0 0 0 0 0 0 0 0 0 0 0 0 0 0 0 0 0 127 0" result="hardAlpha"/>
<feOffset dy="4"/>
<feGaussianBlur stdDeviation="2"/>
<feComposite in2="hardAlpha" operator="out"/>
<feColorMatrix type="matrix" values="0 0 0 0 0 0 0 0 0 0 0 0 0 0 0 0 0 0 0.25 0"/>
<feBlend mode="normal" in2="BackgroundImageFix" result="effect1_dropShadow_22_100"/>
<feBlend mode="normal" in="SourceGraphic" in2="effect1_dropShadow_22_100" result="shape"/>
</filter>
<filter id="filter1_d_22_100" x="137.826" y="108.536" width="369.382" height="397.807" filterUnits="userSpaceOnUse" color-interpolation-filters="sRGB">
<feFlood flood-opacity="0" result="BackgroundImageFix"/>
<feColorMatrix in="SourceAlpha" type="matrix" values="0 0 0 0 0 0 0 0 0 0 0 0 0 0 0 0 0 0 127 0" result="hardAlpha"/>
<feOffset dy="4"/>
<feGaussianBlur stdDeviation="2"/>
<feComposite in2="hardAlpha" operator="out"/>
<feColorMatrix type="matrix" values="0 0 0 0 0 0 0 0 0 0 0 0 0 0 0 0 0 0 0.25 0"/>
<feBlend mode="normal" in2="BackgroundImageFix" result="effect1_dropShadow_22_100"/>
<feBlend mode="normal" in="SourceGraphic" in2="effect1_dropShadow_22_100" result="shape"/>
</filter>
<filter id="filter2_d_22_100" x="71.4315" y="414.861" width="439.708" height="79.6945" filterUnits="userSpaceOnUse" color-interpolation-filters="sRGB">
<feFlood flood-opacity="0" result="BackgroundImageFix"/>
<feColorMatrix in="SourceAlpha" type="matrix" values="0 0 0 0 0 0 0 0 0 0 0 0 0 0 0 0 0 0 127 0" result="hardAlpha"/>
<feOffset dy="4"/>
<feGaussianBlur stdDeviation="2"/>
<feComposite in2="hardAlpha" operator="out"/>
<feColorMatrix type="matrix" values="0 0 0 0 0 0 0 0 0 0 0 0 0 0 0 0 0 0 0.25 0"/>
<feBlend mode="normal" in2="BackgroundImageFix" result="effect1_dropShadow_22_100"/>
<feBlend mode="normal" in="SourceGraphic" in2="effect1_dropShadow_22_100" result="shape"/>
</filter>
<linearGradient id="paint0_linear_22_100" x1="297.314" y1="59.2255" x2="297.314" y2="366.128" gradientUnits="userSpaceOnUse">
<stop stop-color="#CA86F3"/>
<stop offset="1" stop-color="#B885FC"/>
</linearGradient>
<linearGradient id="paint1_linear_22_100" x1="438.271" y1="173.592" x2="217.568" y2="440.815" gradientUnits="userSpaceOnUse">
<stop stop-color="#FC7FA4"/>
<stop offset="1" stop-color="#FF7EA3"/>
</linearGradient>
<linearGradient id="paint2_linear_22_100" x1="156.474" y1="440.804" x2="296.8" y2="172.896" gradientUnits="userSpaceOnUse">
<stop stop-color="#E37BCD"/>
<stop offset="1" stop-color="#C3538A"/>
</linearGradient>
</defs>
</svg>
